<svg xmlns="http://www.w3.org/2000/svg" version="1.1" xmlns:xlink="http://www.w3.org/1999/xlink" xmlns:svgjs="http://svgjs.dev/svgjs" width="1500" height="1500" viewBox="0 0 1500 1500"><rect width="1500" height="1500" fill="#000000"></rect><g transform="matrix(0.6666666666666666,0,0,0.6666666666666666,249.39436519522388,621.2432506293144)"><svg viewBox="0 0 396 102" data-background-color="#ffffff" preserveAspectRatio="xMidYMid meet" height="386" width="1500" xmlns="http://www.w3.org/2000/svg" xmlns:xlink="http://www.w3.org/1999/xlink"><g id="tight-bounds" transform="matrix(1,0,0,1,0.24008861730862918,0.03570635677439782)"><svg viewBox="0 0 395.52 101.92858728645122" height="101.92858728645122" width="395.52"><g><svg viewBox="0 0 395.52 101.92858728645122" height="101.92858728645122" width="395.52"><g><svg viewBox="0 0 395.52 101.92858728645122" height="101.92858728645122" width="395.52"><g id="textblocktransform"><svg viewBox="0 0 395.52 101.92858728645122" height="101.92858728645122" width="395.52" id="textblock"><g><svg viewBox="0 0 395.52 81.58975368565974" height="81.58975368565974" width="395.52"><path d="M394.594 17.499C392.735 9.03 387.435 6.676 387.435 6.676 371.165-2.047 350.86-0.167 332.619 1.087 300.414 1.137 268.339 3.001 236.208 4 168.767 4.152 100.749 1.645 33.643 7.828 27.339 9.725-6.54 8.2 1.121 18.583 3.129 22.903 10.456 27.696 10.232 31.66 11.236 32.354 12.631 30.762 13.226 31.761 15.309 34.454 18.711 33.184 21.501 34.776 17.614 39.028 20.403 42.568 23.062 46.277 18.377 47.243 12.371 46.785 9.675 49.986 9.396 52.307 7.89 51.867 6.235 51.765 5.026 51.697 2.59 51.951 2.999 52.68 4.394 55.169-1.594 56.609 2.162 59.048-0.422 61.691 3.948 63.977 3.353 66.84 3.278 67.416 3.687 67.907 4.338 68.042 7.22 68.771 3.018 70.193 3.464 71.735 33.029 82.27 65.104 74.987 95.394 79.831 103.259 76.444 97.346 81.034 100.489 80.322 102.943 79.492 104.728 82.931 107.499 80.983 107.927 80.424 107.276 79.103 108.8 79.357 109.6 79.492 110.307 79.459 110.418 78.679 110.586 77.511 109.117 78.239 108.726 77.629 112.947 74.547 111.906 81.881 115.866 81.576 115.68 80.678 114.528 79.391 116.889 79.56 119.232 78.273 119.306 77.206 121.389 80.102 121.463 80.729 121.835 81.169 122.43 81.474 128.938 78.324 135.409 82.592 142.233 81.169 146.417 79.611 150.433 82.016 154.672 81.423 156.16 80.949 157.666 80.102 159.098 81.525 176.632 81.83 195.319 80.56 211.943 81.576 256.364 79.679 303.836 82.355 350.674 79.848 361.719 78.883 373.192 77.511 383.958 76.41 383.958 76.41 392.679 73.395 392.679 59.844S394.538 47.988 394.817 37.198C395.096 26.409 396.398 25.968 394.538 17.499Z" opacity="1" fill="#ffffff" data-fill-palette-color="tertiary"></path><g transform="matrix(1,0,0,1,55.76832,26.068561146666667)"><svg width="283.98335999999995" viewBox="3.49 -37.4 471.46999999999997 48.9" height="29.45263139232641" data-palette-color="#ffffff"><path d="M3.49-32.79L3.49-37.01 17.26-37.01Q19.8-37.01 22.09-36.35 24.39-35.69 26.37-34.5 28.34-33.3 29.96-31.63 31.57-29.96 32.7-27.91 33.84-25.85 34.45-23.5 35.06-21.14 35.06-18.6L35.06-18.6Q35.06-16.02 34.45-13.65 33.84-11.28 32.7-9.2 31.57-7.13 29.96-5.43 28.34-3.74 26.37-2.53 24.39-1.32 22.09-0.66 19.8 0 17.26 0L17.26 0 3.49 0 3.49-4.2 7.01-4.2 7.01-32.79 3.49-32.79ZM17.55-32.79L11.79-32.79 11.79-4.2 17.55-4.2Q20.12-4.2 22.38-5.32 24.63-6.45 26.32-8.39 28-10.33 28.98-12.95 29.96-15.58 29.96-18.6L29.96-18.6Q29.96-21.58 28.98-24.17 28-26.76 26.32-28.67 24.63-30.59 22.38-31.69 20.12-32.79 17.55-32.79L17.55-32.79ZM40.28-32.79L40.28-37.01 52.1-37.01 52.1-32.79 48.58-32.79 48.58-4.2 52.1-4.2 52.1 0 40.28 0 40.28-4.2 43.8-4.2 43.8-32.79 40.28-32.79ZM72.63-18.51Q72.63-19.53 72.15-20.25 71.67-20.97 70.92-21.42 70.16-21.88 69.23-22.08 68.31-22.29 67.43-22.29L67.43-22.29Q66.45-22.29 65.63-22.07 64.81-21.85 64.23-21.44 63.64-21.02 63.31-20.42 62.98-19.82 62.98-19.09L62.98-19.09Q62.98-17.82 63.75-17.08 64.52-16.33 66.33-15.7L66.33-15.7 71.19-13.99Q74.31-12.94 75.75-11.13 77.19-9.33 77.19-6.81L77.19-6.81Q77.19-5.13 76.52-3.72 75.85-2.32 74.62-1.33 73.38-0.34 71.65 0.21 69.92 0.76 67.79 0.76L67.79 0.76Q64.84 0.76 62.98-0.2 61.13-1.15 60.13-2.71L60.13-2.71 57.59-2.71 57.59-6.91 62.64-6.91Q62.64-5.86 63.09-5.11 63.54-4.37 64.29-3.91 65.03-3.44 65.97-3.22 66.91-3 67.89-3L67.89-3Q68.84-3 69.72-3.23 70.6-3.47 71.27-3.92 71.94-4.37 72.33-5 72.72-5.64 72.72-6.45L72.72-6.45Q72.72-7.67 71.93-8.52 71.14-9.38 69.23-10.06L69.23-10.06 64.4-11.87Q61.45-12.92 60.02-14.54 58.59-16.16 58.59-18.6L58.59-18.6Q58.59-20.21 59.19-21.58 59.79-22.95 60.92-23.94 62.06-24.93 63.69-25.49 65.33-26.05 67.43-26.05L67.43-26.05Q70.14-26.05 71.97-25.29 73.8-24.54 75.26-22.71L75.26-22.71 77.63-22.71 77.63-18.51 72.63-18.51ZM105.12-18.55L100.53-18.55Q99.5-20.39 97.93-21.24 96.35-22.09 94.28-22.09L94.28-22.09Q92.69-22.09 91.3-21.44 89.91-20.78 88.87-19.56 87.83-18.33 87.24-16.59 86.64-14.84 86.64-12.7L86.64-12.7Q86.64-10.57 87.24-8.86 87.83-7.15 88.88-5.94 89.93-4.74 91.31-4.09 92.69-3.44 94.28-3.44L94.28-3.44Q96.62-3.44 98.36-4.58 100.09-5.71 101.12-7.91L101.12-7.91 104.88-6.05Q104.14-4.49 103.07-3.25 101.99-2 100.64-1.12 99.28-0.24 97.66 0.23 96.04 0.71 94.23 0.71L94.23 0.71Q91.59 0.71 89.36-0.28 87.13-1.27 85.5-3.05 83.88-4.83 82.98-7.3 82.07-9.77 82.07-12.7L82.07-12.7Q82.07-15.63 83.02-18.09 83.98-20.56 85.64-22.33 87.3-24.1 89.52-25.1 91.74-26.1 94.28-26.1L94.28-26.1Q96.67-26.1 98.81-25.27 100.94-24.44 102.56-22.75L102.56-22.75 105.12-22.75 105.12-18.55ZM109.22-12.65L109.22-12.65Q109.24-15.65 110.18-18.12 111.12-20.58 112.81-22.35 114.49-24.12 116.81-25.07 119.13-26.03 121.91-26.03L121.91-26.03Q124.72-26.03 127.05-25.07 129.38-24.12 131.04-22.38 132.7-20.63 133.63-18.16 134.56-15.7 134.56-12.7L134.56-12.7Q134.56-9.74 133.63-7.26 132.7-4.79 131.04-3 129.38-1.22 127.05-0.23 124.72 0.76 121.91 0.76L121.91 0.76Q119.06 0.76 116.74-0.22 114.42-1.2 112.76-2.97 111.1-4.74 110.17-7.2 109.24-9.67 109.22-12.65ZM114.03-12.65L114.03-12.65Q114.03-10.47 114.65-8.72 115.27-6.96 116.36-5.73 117.45-4.49 118.87-3.82 120.3-3.15 121.91-3.15L121.91-3.15Q123.6-3.15 125.05-3.81 126.5-4.47 127.58-5.7 128.65-6.93 129.26-8.69 129.87-10.45 129.87-12.65L129.87-12.65Q129.87-14.94 129.26-16.72 128.65-18.51 127.59-19.7 126.53-20.9 125.06-21.51 123.6-22.12 121.91-22.12L121.91-22.12Q120.3-22.12 118.87-21.51 117.45-20.9 116.36-19.7 115.27-18.51 114.65-16.72 114.03-14.94 114.03-12.65ZM137.51-21.09L137.51-25.29 146.25-25.29 146.25-21.09 143.88-21.09 150.13-3.66 156.24-21.09 154.7-21.09 154.7-25.29 162.71-25.29 162.71-21.09 160.53-21.09 152.26 0.39 147.77 0.39 139.51-21.09 137.51-21.09ZM188.83-12.06L170.61-12.06Q170.61-10.99 170.77-10.1 170.93-9.2 171.23-8.4L171.23-8.4Q172.13-5.96 174.12-4.72 176.11-3.49 178.62-3.49L178.62-3.49Q180.6-3.49 182.47-4.04 184.34-4.59 186.39-5.76L186.39-5.76 188.22-2.66Q185.73-0.95 183.21-0.12 180.7 0.71 177.99 0.71L177.99 0.71Q175.42 0.71 173.24-0.15 171.05-1 169.48-2.69 167.9-4.37 167.01-6.88 166.12-9.4 166.12-12.74L166.12-12.74Q166.12-15.45 166.88-17.86 167.64-20.26 169.14-22.06 170.64-23.85 172.86-24.9 175.08-25.95 178.04-25.95L178.04-25.95Q180.89-25.95 182.81-25.09 184.73-24.22 185.93-22.79 187.14-21.36 187.77-19.53 188.39-17.7 188.63-15.8L188.63-15.8Q188.75-14.87 188.79-13.92 188.83-12.96 188.83-12.06L188.83-12.06ZM177.72-22.14L177.72-22.14Q176.13-22.14 174.95-21.69 173.76-21.24 172.93-20.4 172.1-19.56 171.6-18.33 171.1-17.11 170.86-15.6L170.86-15.6 183.97-15.6Q183.87-17.02 183.52-18.21 183.16-19.41 182.43-20.29 181.7-21.17 180.55-21.66 179.4-22.14 177.72-22.14ZM213.19-25.44L213.19-19.95 208.55-19.95 208.55-21.51Q207.75-21.51 206.9-21.2 206.06-20.9 205.33-20.28 204.6-19.65 204.05-18.69 203.5-17.72 203.25-16.41L203.25-16.41 203.25-4.2 207.55-4.2 207.55 0 195 0 195-4.2 198.49-4.2 198.52-21.09 195-21.09 195-25.29 203.08-25.29 203.08-21.8Q203.52-22.58 204.07-23.25 204.62-23.93 205.29-24.43 205.96-24.93 206.78-25.21 207.6-25.49 208.55-25.49L208.55-25.49Q209.82-25.49 210.94-25.49 212.07-25.49 213.19-25.44L213.19-25.44ZM216.75-21.09L216.75-25.29 226.35-25.29 226.35-21.09 223.34-21.09 229.28-4.96 235.48-21.09 232.5-21.09 232.5-25.29 242.09-25.29 242.09-21.09 239.48-21.09 228.23 7.3 231.69 7.3 231.69 11.5 221.49 11.5 221.49 7.3 224.56 7.3 227.25 0.34 218.8-21.09 216.75-21.09ZM244.7 0Q244.7 0 244.7 0ZM259.13-32.79L259.13-37.01 271.14-37.01 271.14-32.79 267.43-32.79 267.43-4.2 280.2-4.2Q280.59-4.2 280.98-4.38 281.37-4.57 281.69-4.86 282.01-5.15 282.2-5.53 282.4-5.91 282.4-6.3L282.4-6.3 282.4-10.96 287.04-10.96 287.04 0 259.13 0 259.13-4.2 262.65-4.2 262.65-32.79 259.13-32.79ZM312.23-12.06L294.02-12.06Q294.02-10.99 294.17-10.1 294.33-9.2 294.63-8.4L294.63-8.4Q295.53-5.96 297.52-4.72 299.51-3.49 302.02-3.49L302.02-3.49Q304-3.49 305.87-4.04 307.74-4.59 309.79-5.76L309.79-5.76 311.62-2.66Q309.13-0.95 306.61-0.12 304.1 0.71 301.39 0.71L301.39 0.71Q298.83 0.71 296.64-0.15 294.45-1 292.88-2.69 291.31-4.37 290.41-6.88 289.52-9.4 289.52-12.74L289.52-12.74Q289.52-15.45 290.28-17.86 291.04-20.26 292.54-22.06 294.04-23.85 296.26-24.9 298.48-25.95 301.44-25.95L301.44-25.95Q304.29-25.95 306.21-25.09 308.13-24.22 309.34-22.79 310.54-21.36 311.17-19.53 311.79-17.7 312.03-15.8L312.03-15.8Q312.16-14.87 312.19-13.92 312.23-12.96 312.23-12.06L312.23-12.06ZM301.12-22.14L301.12-22.14Q299.53-22.14 298.35-21.69 297.16-21.24 296.33-20.4 295.5-19.56 295-18.33 294.5-17.11 294.26-15.6L294.26-15.6 307.37-15.6Q307.27-17.02 306.92-18.21 306.56-19.41 305.83-20.29 305.1-21.17 303.95-21.66 302.8-22.14 301.12-22.14ZM333.27 0L333.27-2.34Q331.83-1 330.08-0.15 328.34 0.71 326.12 0.71L326.12 0.71Q324.26 0.71 322.71 0.12 321.16-0.46 320.04-1.48 318.92-2.49 318.29-3.83 317.67-5.18 317.67-6.69L317.67-6.69Q317.67-8.3 318.15-9.55 318.62-10.79 319.42-11.71 320.21-12.62 321.27-13.24 322.33-13.87 323.49-14.25 324.65-14.62 325.86-14.78 327.07-14.94 328.17-14.94L328.17-14.94Q329.93-14.94 331.12-14.83 332.32-14.72 333.3-14.53L333.3-14.53 333.32-16.6Q333.32-17.94 332.93-18.93 332.54-19.92 331.83-20.57 331.12-21.22 330.13-21.53 329.14-21.85 327.92-21.85L327.92-21.85Q326.78-21.85 325.73-21.69 324.68-21.53 323.76-21.28 322.85-21.02 322.08-20.69 321.31-20.36 320.77-20L320.77-20 319.28-23.14Q320.18-23.73 321.26-24.23 322.33-24.73 323.52-25.09 324.7-25.44 325.93-25.65 327.17-25.85 328.36-25.85L328.36-25.85Q330.56-25.85 332.32-25.33 334.08-24.8 335.3-23.71 336.52-22.61 337.18-20.91 337.84-19.21 337.84-16.85L337.84-16.85 337.81-4.2 340.62-4.2 340.62 0 333.27 0ZM327.12-3.1L327.12-3.1Q328.02-3.1 328.93-3.32 329.83-3.54 330.63-3.92 331.44-4.3 332.12-4.8 332.81-5.3 333.27-5.83L333.27-5.83 333.3-11.55 328.02-11.55Q326.7-11.55 325.62-11.25 324.53-10.96 323.74-10.4 322.94-9.84 322.5-9.01 322.06-8.18 322.06-7.1L322.06-7.1Q322.06-6.1 322.43-5.36 322.8-4.61 323.47-4.11 324.14-3.61 325.07-3.36 326-3.1 327.12-3.1ZM363.93-25.44L363.93-19.95 359.29-19.95 359.29-21.51Q358.49-21.51 357.65-21.2 356.8-20.9 356.07-20.28 355.34-19.65 354.79-18.69 354.24-17.72 354-16.41L354-16.41 354-4.2 358.29-4.2 358.29 0 345.74 0 345.74-4.2 349.24-4.2 349.26-21.09 345.74-21.09 345.74-25.29 353.82-25.29 353.82-21.8Q354.26-22.58 354.81-23.25 355.36-23.93 356.03-24.43 356.71-24.93 357.52-25.21 358.34-25.49 359.29-25.49L359.29-25.49Q360.56-25.49 361.69-25.49 362.81-25.49 363.93-25.44L363.93-25.44ZM385.83 0L385.83-4.2 389.39-4.2 389.39-15.75Q389.39-18.65 387.92-20.15 386.44-21.66 383.68-21.66L383.68-21.66Q382.09-21.66 380.48-20.9 378.87-20.14 377.43-19.02L377.43-19.02 377.43-4.2 381-4.2 381 0 369.18 0 369.18-4.2 372.69-4.2 372.69-21.09 369.18-21.09 369.18-25.29 377.24-25.29 377.24-22.31 377.28-22.31Q378.09-23.02 379.01-23.66 379.92-24.29 380.92-24.76 381.92-25.22 383.01-25.49 384.1-25.76 385.29-25.76L385.29-25.76Q387.32-25.76 388.95-25.2 390.59-24.63 391.74-23.49 392.88-22.34 393.51-20.54 394.13-18.75 394.13-16.31L394.13-16.31 394.13-4.2 397.65-4.2 397.65 0 385.83 0ZM402.33-21.09L402.33-25.29 410.58-25.29 410.58-4.2 414.39-4.2 414.39 0 402.38 0 402.38-4.2 405.99-4.2 405.99-21.09 402.33-21.09ZM405.14-34.25L405.14-34.25Q405.14-34.89 405.39-35.46 405.65-36.04 406.08-36.46 406.51-36.89 407.09-37.15 407.68-37.4 408.34-37.4L408.34-37.4Q408.97-37.4 409.55-37.15 410.12-36.89 410.55-36.46 410.97-36.04 411.23-35.46 411.49-34.89 411.49-34.25L411.49-34.25Q411.49-33.59 411.23-33.01 410.97-32.42 410.55-31.97 410.12-31.52 409.55-31.26 408.97-31.01 408.34-31.01L408.34-31.01Q407.68-31.01 407.09-31.26 406.51-31.52 406.08-31.97 405.65-32.42 405.39-33.01 405.14-33.59 405.14-34.25ZM435.21 0L435.21-4.2 438.78-4.2 438.78-15.75Q438.78-18.65 437.3-20.15 435.82-21.66 433.07-21.66L433.07-21.66Q431.48-21.66 429.87-20.9 428.26-20.14 426.82-19.02L426.82-19.02 426.82-4.2 430.38-4.2 430.38 0 418.56 0 418.56-4.2 422.08-4.2 422.08-21.09 418.56-21.09 418.56-25.29 426.62-25.29 426.62-22.31 426.67-22.31Q427.47-23.02 428.39-23.66 429.31-24.29 430.31-24.76 431.31-25.22 432.39-25.49 433.48-25.76 434.68-25.76L434.68-25.76Q436.7-25.76 438.34-25.2 439.97-24.63 441.12-23.49 442.27-22.34 442.89-20.54 443.51-18.75 443.51-16.31L443.51-16.31 443.51-4.2 447.03-4.2 447.03 0 435.21 0ZM470.42-1.86L470.42-2.22Q469.17-0.9 467.52-0.17 465.88 0.56 463.78 0.56L463.78 0.56Q461.21 0.56 459-0.33 456.79-1.22 455.17-2.94 453.55-4.66 452.63-7.17 451.72-9.67 451.72-12.89L451.72-12.89Q451.72-15.82 452.59-18.23 453.47-20.63 455.08-22.33 456.7-24.02 458.97-24.96 461.24-25.9 464.02-25.9L464.02-25.9Q465.92-25.9 467.45-25.48 468.98-25.05 470.42-24L470.42-24 470.42-25.29 474.96-25.29 474.96-1Q474.96 5 472.11 8.08 469.27 11.16 463.26 11.16L463.26 11.16Q461.94 11.16 460.5 10.96 459.06 10.77 457.66 10.34 456.26 9.91 454.93 9.25 453.6 8.59 452.47 7.64L452.47 7.64 454.91 3.96Q455.65 4.59 456.59 5.13 457.53 5.66 458.6 6.04 459.67 6.42 460.82 6.64 461.97 6.86 463.12 6.86L463.12 6.86Q465 6.86 466.38 6.47 467.76 6.08 468.65 5.09 469.54 4.1 469.98 2.42 470.42 0.73 470.42-1.86L470.42-1.86ZM464.36-3.39L464.36-3.39Q465.48-3.39 466.41-3.61 467.34-3.83 468.1-4.19 468.85-4.54 469.43-5 470-5.47 470.42-5.98L470.42-5.98 470.42-19.82Q469.17-20.92 467.55-21.41 465.92-21.9 464.22-21.9L464.22-21.9Q462.6-21.9 461.19-21.3 459.77-20.7 458.71-19.56 457.65-18.41 457.04-16.75 456.43-15.09 456.43-12.94L456.43-12.94Q456.43-10.6 457.01-8.81 457.6-7.03 458.65-5.82 459.7-4.61 461.16-4 462.63-3.39 464.36-3.39Z" opacity="1" transform="matrix(1,0,0,1,0,0)" fill="#000000" class="wordmark-text-0" data-fill-palette-color="quaternary" id="text-0"></path></svg></g></svg></g><g transform="matrix(1,0,0,1,75.54432000000001,88.54281309423459)"><svg viewBox="0 0 244.43135999999996 13.385774192216621" height="13.385774192216621" width="244.43135999999996"><g transform="matrix(1,0,0,1,0,0)"><svg width="244.43135999999996" viewBox="1.5 -35.45 823.46 45.1" height="13.385774192216621" data-palette-color="#61777f"><path d="M16.8-35.45Q20.45-35.45 23.23-34.43 26-33.4 26-31.65 26-29.9 24.68-27.33 23.35-24.75 22.45-24.75L22.45-24.75Q22.2-24.75 21.88-25.03 21.55-25.3 20.38-25.63 19.2-25.95 18.35-25.95L18.35-25.95Q15.45-25.95 13.68-23.9 11.9-21.85 11.9-17.63 11.9-13.4 13.73-11.35 15.55-9.3 18.35-9.3L18.35-9.3Q19.5-9.3 20.93-9.63 22.35-9.95 22.95-10.55L22.95-10.55Q23.05-10.65 23.35-10.65 23.65-10.65 24.48-9.53 25.3-8.4 26-6.58 26.7-4.75 26.7-3.75L26.7-3.75Q26.7-1.8 23.7-0.65 20.7 0.5 16.6 0.5L16.6 0.5Q10 0.5 5.75-4.15 1.5-8.8 1.5-17.28 1.5-25.75 5.88-30.6 10.25-35.45 16.8-35.45L16.8-35.45ZM30.05-9.95L30.05-24.7Q30.05-25.25 34.35-25.25 38.65-25.25 38.65-24.7L38.65-24.7 38.65-10.1Q38.65-7.6 40.25-7.6L40.25-7.6Q41.45-7.6 42.95-8.65L42.95-8.65 42.95-24.7Q42.95-25.2 47.2-25.2 51.45-25.2 51.45-24.7L51.45-24.7 51.45-8.3 52.75-8.3Q54.45-8.3 54.45-5.05L54.45-5.05Q54.45-3.4 53.75-1.7L53.75-1.7Q52.75 0.5 51.05 0.5L51.05 0.5Q47.7 0.5 46.1-2.25L46.1-2.25 46.05-2.2Q43 0.5 39.5 0.5L39.5 0.5Q34.65 0.5 32.35-1.93 30.05-4.35 30.05-9.95L30.05-9.95ZM68.45-14L68.45-0.05Q68.45 0.3 63.9 0.3L63.9 0.3Q59.35 0.2 59.35-0.1L59.35-0.1 59.35-16.7 58-16.7Q57.2-16.7 56.72-17.68 56.25-18.65 56.25-20.1L56.25-20.1Q56.25-25.5 59.45-25.5L59.45-25.5Q61.7-25.5 63.2-24.13 64.7-22.75 64.7-21L64.7-21Q65.75-23.05 67.52-24.28 69.3-25.5 71.15-25.5L71.15-25.5Q74.05-25.5 74.65-24L74.65-24Q74.8-23.6 74.8-22.83 74.8-22.05 74.32-20.05 73.84-18.05 73.34-17.15 72.84-16.25 72.75-16.25 72.65-16.25 71.82-16.63 71-17 70.34-17L70.34-17Q68.45-17 68.45-14L68.45-14ZM86.44-24.85L86.44-0.3Q86.44 0.1 81.87 0.1 77.29 0.1 77.29-0.25L77.29-0.25 77.29-24.8Q77.29-25.15 81.87-25.15 86.44-25.15 86.44-24.85L86.44-24.85ZM86.44-35.15L86.44-27.8Q86.44-27.45 81.87-27.45 77.29-27.45 77.29-27.75L77.29-27.75 77.29-34.95Q77.29-35.45 81.87-35.45 86.44-35.45 86.44-35.15L86.44-35.15ZM93.12-2.95Q89.99-6.4 89.99-12.5 89.99-18.6 93.12-22.05 96.24-25.5 101.54-25.5 106.84-25.5 109.94-22.05 113.04-18.6 113.04-12.5 113.04-6.4 109.94-2.95 106.84 0.5 101.54 0.5 96.24 0.5 93.12-2.95ZM101.57-17.15Q98.74-17.15 98.74-12.55 98.74-7.95 101.57-7.95 104.39-7.95 104.39-12.55 104.39-17.15 101.57-17.15ZM117.64-9L117.64-9Q121.69-6.55 124.04-6.55L124.04-6.55Q125.54-6.55 125.54-7.6L125.54-7.6Q125.54-8.35 122.94-9.55L122.94-9.55Q116.69-12.1 116.69-17.9L116.69-17.9Q116.69-21.6 119.39-23.55 122.09-25.5 125.86-25.5 129.64-25.5 132.26-24.7 134.89-23.9 134.89-22.6L134.89-22.6Q134.89-21.5 133.81-19.7 132.74-17.9 132.34-17.75L132.34-17.75Q130.19-18.95 127.69-18.95L127.69-18.95Q126.34-18.95 126.34-18L126.34-18Q126.34-17.4 126.86-16.98 127.39-16.55 128.79-15.93 130.19-15.3 131.11-14.8 132.04-14.3 133.19-13.4L133.19-13.4Q135.59-11.5 135.59-8.45L135.59-8.45Q135.59-4.45 132.94-1.98 130.29 0.5 124.94 0.5L124.94 0.5Q121.39 0.5 118.49-0.7 115.59-1.9 115.59-4L115.59-4Q115.59-5.4 116.26-6.95 116.94-8.5 117.64-9ZM148.24-24.85L148.24-0.3Q148.24 0.1 143.66 0.1 139.09 0.1 139.09-0.25L139.09-0.25 139.09-24.8Q139.09-25.15 143.66-25.15 148.24-25.15 148.24-24.85L148.24-24.85ZM148.24-35.15L148.24-27.8Q148.24-27.45 143.66-27.45 139.09-27.45 139.09-27.75L139.09-27.75 139.09-34.95Q139.09-35.45 143.66-35.45 148.24-35.45 148.24-35.15L148.24-35.15ZM164.23-18L164.23-0.3Q164.23 0.3 160.03 0.3L160.03 0.3Q155.03 0.1 155.03-0.35L155.03-0.35 155.03-18.05 152.48-18.05Q151.48-18.05 151.48-21.5L151.48-21.5Q151.48-22.4 151.66-23.7 151.83-25 152.38-25L152.38-25 155.03-25 155.03-29.4Q155.03-30.4 159.26-30.4 163.48-30.4 163.48-29.6L163.48-29.6 163.48-26.4 163.53-25 167.78-25Q168.63-25 168.63-21.5 168.63-18 167.78-18L167.78-18 164.23-18ZM177.88-2L169.38-24.75Q169.38-25.3 173.96-25.3 178.53-25.3 178.68-24.8L178.68-24.8 182.28-13 185.73-24.9Q185.93-25.3 188.83-25.3L188.83-25.3Q195.48-25.3 195.18-24.65L195.18-24.65 183.43 8.8Q183.38 9.1 180.71 9.1 178.03 9.1 175.73 8.93 173.43 8.75 173.53 8.5L173.53 8.5 177.88-2ZM216.53-24.85L216.53-0.3Q216.53 0.1 211.95 0.1 207.38 0.1 207.38-0.25L207.38-0.25 207.38-24.8Q207.38-25.15 211.95-25.15 216.53-25.15 216.53-24.85L216.53-24.85ZM216.53-35.15L216.53-27.8Q216.53-27.45 211.95-27.45 207.38-27.45 207.38-27.75L207.38-27.75 207.38-34.95Q207.38-35.45 211.95-35.45 216.53-35.45 216.53-35.15L216.53-35.15ZM230.22 0L230.22 0Q225.37 0 222.72-3.13 220.07-6.25 220.07-12.38 220.07-18.5 223.55-21.98 227.02-25.45 232.8-25.45 238.57-25.45 242.32-22.9L242.32-22.9 242.32 2Q242.32 5.7 239.32 7.68 236.32 9.65 231.62 9.65 226.92 9.65 223.22 8.45L223.22 8.45Q222.72 7.25 222.72 6.3L222.72 6.3Q222.72 3.1 223.77 1.6L223.77 1.6Q227.12 3.05 230.92 3.05L230.92 3.05Q233.67 3.05 233.67 1.1L233.67 1.1 233.67-0.4Q231.52 0 230.22 0ZM232.52-17.3L232.52-17.3Q229.17-17.3 229.17-12.25L229.17-12.25Q229.17-9.1 230.47-8.15L230.47-8.15Q231.32-7.5 232.17-7.5 233.02-7.5 233.67-7.65L233.67-7.65 233.67-17.15Q233.07-17.3 232.52-17.3ZM257.27-16.35L257.27-0.3Q257.27 0.05 253.67 0.05L253.67 0.05Q248.67-0.1 248.67-0.5L248.67-0.5 248.67-16.7 247.37-16.7Q246.07-16.7 245.67-18.9L245.67-18.9Q245.57-19.55 245.57-20.2L245.57-20.2Q245.57-21.75 246.17-23.3L246.17-23.3Q247.07-25.5 248.97-25.5 250.87-25.5 252.37-24.6 253.87-23.7 254.37-22.8L254.37-22.8Q257.52-25.5 261.87-25.5 266.22-25.5 268.17-23.15 270.12-20.8 270.12-15.45L270.12-15.45 270.12-0.45Q270.12 0.15 265.85 0.15 261.57 0.15 261.57-0.45L261.57-0.45 261.57-14.9Q261.57-17.4 259.82-17.4L259.82-17.4Q259.32-17.4 258.42-16.98 257.52-16.55 257.27-16.35L257.27-16.35ZM283.52-24.85L283.52-0.3Q283.52 0.1 278.94 0.1 274.37 0.1 274.37-0.25L274.37-0.25 274.37-24.8Q274.37-25.15 278.94-25.15 283.52-25.15 283.52-24.85L283.52-24.85ZM283.52-35.15L283.52-27.8Q283.52-27.45 278.94-27.45 274.37-27.45 274.37-27.75L274.37-27.75 274.37-34.95Q274.37-35.45 278.94-35.45 283.52-35.45 283.52-35.15L283.52-35.15ZM299.52-18L299.52-0.3Q299.52 0.3 295.32 0.3L295.32 0.3Q290.32 0.1 290.32-0.35L290.32-0.35 290.32-18.05 287.77-18.05Q286.77-18.05 286.77-21.5L286.77-21.5Q286.77-22.4 286.94-23.7 287.12-25 287.67-25L287.67-25 290.32-25 290.32-29.4Q290.32-30.4 294.54-30.4 298.77-30.4 298.77-29.6L298.77-29.6 298.77-26.4 298.82-25 303.07-25Q303.92-25 303.92-21.5 303.92-18 303.07-18L303.07-18 299.52-18ZM325.31-1.35L325.31-1.35Q322.16 0.5 317.21 0.5 312.26 0.5 308.86-2.88 305.46-6.25 305.46-12.23 305.46-18.2 308.74-21.85 312.01-25.5 317.01-25.5 322.01-25.5 324.74-22.95 327.46-20.4 327.46-16.75L327.46-16.75Q327.46-8.65 318.16-8.65L318.16-8.65 314.71-8.65Q314.71-7.15 315.54-6.58 316.36-6 317.96-6L317.96-6Q321.46-6 324.61-7.6L324.61-7.6Q324.66-7.65 325.06-6.9L325.06-6.9Q326.26-4.75 326.26-3.28 326.26-1.8 325.31-1.35ZM319.06-15.8L319.06-15.8Q319.06-17.9 317.01-17.9L317.01-17.9Q316.06-17.9 315.39-17.32 314.71-16.75 314.71-15.65L314.71-15.65 314.71-14.1 317.41-14.1Q319.06-14.1 319.06-15.8ZM331.76-9L331.76-9Q335.81-6.55 338.16-6.55L338.16-6.55Q339.66-6.55 339.66-7.6L339.66-7.6Q339.66-8.35 337.06-9.55L337.06-9.55Q330.81-12.1 330.81-17.9L330.81-17.9Q330.81-21.6 333.51-23.55 336.21-25.5 339.99-25.5 343.76-25.5 346.39-24.7 349.01-23.9 349.01-22.6L349.01-22.6Q349.01-21.5 347.94-19.7 346.86-17.9 346.46-17.75L346.46-17.75Q344.31-18.95 341.81-18.95L341.81-18.95Q340.46-18.95 340.46-18L340.46-18Q340.46-17.4 340.99-16.98 341.51-16.55 342.91-15.93 344.31-15.3 345.24-14.8 346.16-14.3 347.31-13.4L347.31-13.4Q349.71-11.5 349.71-8.45L349.71-8.45Q349.71-4.45 347.06-1.98 344.41 0.5 339.06 0.5L339.06 0.5Q335.51 0.5 332.61-0.7 329.71-1.9 329.71-4L329.71-4Q329.71-5.4 330.39-6.95 331.06-8.5 331.76-9ZM356.76-2.85L356.96-7.4Q357.26-8.2 361.21-8.2 365.16-8.2 365.16-7.15L365.16-7.15 365.06-2.9 362.16 3.9Q361.51 5.35 358.13 5.35 354.76 5.35 353.86 4.25L353.86 4.25Q353.66 4 353.66 3.78 353.66 3.55 353.71 3.35L353.71 3.35 356.76-2.85ZM390.5-25.2L390.5-34.7Q390.5-35.45 394.45-35.45L394.45-35.45Q395.8-35.45 397.58-35.27 399.35-35.1 399.35-34.8L399.35-34.8 399.35-8.45 401.1-8.45Q402.35-8.45 402.75-6.2L402.75-6.2Q402.85-5.55 402.85-4.42 402.85-3.3 402.15-1.7L402.15-1.7Q401.15 0.5 398.95 0.5L398.95 0.5Q397.3 0.5 396.03-0.15 394.75-0.8 394.3-1.5L394.3-1.5 393.85-2.15Q391.1 0.5 386.95 0.5 382.8 0.5 379.85-2.95 376.9-6.4 376.9-12.58 376.9-18.75 380-22.13 383.1-25.5 387.75-25.5L387.75-25.5Q389.1-25.5 390.5-25.2L390.5-25.2ZM388.85-17.5L388.85-17.5Q386.05-17.5 386.05-12.45L386.05-12.45Q386.05-9.9 386.85-8.78 387.65-7.65 388.63-7.65 389.6-7.65 390.5-8.5L390.5-8.5 390.5-17Q389.65-17.5 388.85-17.5ZM415.25-24.85L415.25-0.3Q415.25 0.1 410.68 0.1 406.1 0.1 406.1-0.25L406.1-0.25 406.1-24.8Q406.1-25.15 410.68-25.15 415.25-25.15 415.25-24.85L415.25-24.85ZM415.25-35.15L415.25-27.8Q415.25-27.45 410.68-27.45 406.1-27.45 406.1-27.75L406.1-27.75 406.1-34.95Q406.1-35.45 410.68-35.45 415.25-35.45 415.25-35.15L415.25-35.15ZM420.8-9L420.8-9Q424.85-6.55 427.2-6.55L427.2-6.55Q428.7-6.55 428.7-7.6L428.7-7.6Q428.7-8.35 426.1-9.55L426.1-9.55Q419.85-12.1 419.85-17.9L419.85-17.9Q419.85-21.6 422.55-23.55 425.25-25.5 429.02-25.5 432.8-25.5 435.42-24.7 438.05-23.9 438.05-22.6L438.05-22.6Q438.05-21.5 436.97-19.7 435.9-17.9 435.5-17.75L435.5-17.75Q433.35-18.95 430.85-18.95L430.85-18.95Q429.5-18.95 429.5-18L429.5-18Q429.5-17.4 430.02-16.98 430.55-16.55 431.95-15.93 433.35-15.3 434.27-14.8 435.2-14.3 436.35-13.4L436.35-13.4Q438.75-11.5 438.75-8.45L438.75-8.45Q438.75-4.45 436.1-1.98 433.45 0.5 428.1 0.5L428.1 0.5Q424.55 0.5 421.65-0.7 418.75-1.9 418.75-4L418.75-4Q418.75-5.4 419.42-6.95 420.1-8.5 420.8-9ZM450.44-12.4L450.44-12.4Q450.44-7.5 454.14-7.5L454.14-7.5Q456.55-7.5 458.14-8.45L458.14-8.45Q458.89-8.45 459.37-5.88 459.85-3.3 459.85-2.38 459.85-1.45 459.6-1.15L459.6-1.15Q456.94 0.5 452.35 0.5 447.75 0.5 444.52-2.93 441.3-6.35 441.3-12.28 441.3-18.2 444.47-21.85 447.64-25.5 452.92-25.5 458.19-25.5 460.25-22.95L460.25-22.95Q460.69-22.4 460.69-21.33 460.69-20.25 460.3-18.7L460.3-18.7Q459.39-15.5 457.94-15L457.94-15Q457.75-14.95 457.37-14.95 457-14.95 456.44-15.55L456.44-15.55Q454.5-17.5 453.32-17.5 452.14-17.5 451.3-16.3 450.44-15.1 450.44-12.4ZM465.62-2.95Q462.49-6.4 462.49-12.5 462.49-18.6 465.62-22.05 468.74-25.5 474.04-25.5 479.34-25.5 482.44-22.05 485.54-18.6 485.54-12.5 485.54-6.4 482.44-2.95 479.34 0.5 474.04 0.5 468.74 0.5 465.62-2.95ZM474.07-17.15Q471.24-17.15 471.24-12.55 471.24-7.95 474.07-7.95 476.89-7.95 476.89-12.55 476.89-17.15 474.07-17.15ZM493.59-0.6L487.14-24.85Q486.99-25.25 491.81-25.25 496.64-25.25 496.64-25L496.64-25 500.24-8 502.94-24.75Q503.09-25.2 507.89-25.2L507.89-25.2Q512.74-25.2 512.59-24.8L512.59-24.8 505.54-0.35Q505.19 0.15 499.59 0.15 493.99 0.15 493.59-0.6L493.59-0.6ZM534.04-1.35L534.04-1.35Q530.89 0.5 525.94 0.5 520.99 0.5 517.59-2.88 514.19-6.25 514.19-12.23 514.19-18.2 517.46-21.85 520.74-25.5 525.74-25.5 530.74-25.5 533.46-22.95 536.19-20.4 536.19-16.75L536.19-16.75Q536.19-8.65 526.89-8.65L526.89-8.65 523.44-8.65Q523.44-7.15 524.26-6.58 525.09-6 526.69-6L526.69-6Q530.19-6 533.34-7.6L533.34-7.6Q533.39-7.65 533.79-6.9L533.79-6.9Q534.99-4.75 534.99-3.28 534.99-1.8 534.04-1.35ZM527.79-15.8L527.79-15.8Q527.79-17.9 525.74-17.9L525.74-17.9Q524.79-17.9 524.11-17.32 523.44-16.75 523.44-15.65L523.44-15.65 523.44-14.1 526.14-14.1Q527.79-14.1 527.79-15.8ZM550.38-14L550.38-0.05Q550.38 0.3 545.83 0.3L545.83 0.3Q541.28 0.2 541.28-0.1L541.28-0.1 541.28-16.7 539.93-16.7Q539.13-16.7 538.66-17.68 538.18-18.65 538.18-20.1L538.18-20.1Q538.18-25.5 541.38-25.5L541.38-25.5Q543.63-25.5 545.13-24.13 546.63-22.75 546.63-21L546.63-21Q547.68-23.05 549.46-24.28 551.23-25.5 553.08-25.5L553.08-25.5Q555.98-25.5 556.58-24L556.58-24Q556.73-23.6 556.73-22.83 556.73-22.05 556.26-20.05 555.78-18.05 555.28-17.15 554.78-16.25 554.68-16.25 554.58-16.25 553.76-16.63 552.93-17 552.28-17L552.28-17Q550.38-17 550.38-14L550.38-14ZM565.98-2L557.48-24.75Q557.48-25.3 562.06-25.3 566.63-25.3 566.78-24.8L566.78-24.8 570.38-13 573.83-24.9Q574.03-25.3 576.93-25.3L576.93-25.3Q583.58-25.3 583.28-24.65L583.28-24.65 571.53 8.8Q571.48 9.1 568.81 9.1 566.13 9.1 563.83 8.93 561.53 8.75 561.63 8.5L561.63 8.5 565.98-2ZM614.38-1.35L614.38-1.35Q611.23 0.5 606.28 0.5 601.33 0.5 597.93-2.88 594.53-6.25 594.53-12.23 594.53-18.2 597.8-21.85 601.08-25.5 606.08-25.5 611.08-25.5 613.8-22.95 616.53-20.4 616.53-16.75L616.53-16.75Q616.53-8.65 607.23-8.65L607.23-8.65 603.78-8.65Q603.78-7.15 604.6-6.58 605.43-6 607.03-6L607.03-6Q610.53-6 613.68-7.6L613.68-7.6Q613.73-7.65 614.13-6.9L614.13-6.9Q615.33-4.75 615.33-3.28 615.33-1.8 614.38-1.35ZM608.13-15.8L608.13-15.8Q608.13-17.9 606.08-17.9L606.08-17.9Q605.13-17.9 604.45-17.32 603.78-16.75 603.78-15.65L603.78-15.65 603.78-14.1 606.48-14.1Q608.13-14.1 608.13-15.8ZM642.42-16.3L642.42-0.25Q642.42 0.1 638.15 0.1 633.87 0.1 633.87-0.35L633.87-0.35 633.87-14.9Q633.87-17.4 632.22-17.4L632.22-17.4Q631.37-17.4 629.97-16.3L629.97-16.3 629.97-0.3Q629.97 0.2 625.7 0.2 621.42 0.2 621.42-0.35L621.42-0.35 621.42-16.7 620.17-16.7Q618.52-16.7 618.52-20.15L618.52-20.15Q618.52-21.7 619.12-23.3L619.12-23.3Q619.92-25.5 621.72-25.5 623.52-25.5 625.2-24.55 626.87-23.6 627.22-22.75L627.22-22.75Q630.32-25.5 634.1-25.5 637.87-25.5 640.17-23.15L640.17-23.15Q642.87-25.5 646.67-25.5L646.67-25.5Q654.92-25.5 654.92-15.45L654.92-15.45 654.92-0.25Q654.92 0.1 650.65 0.1 646.37 0.1 646.37-0.35L646.37-0.35 646.37-14.9Q646.37-17.4 644.72-17.4L644.72-17.4Q643.82-17.4 642.42-16.3L642.42-16.3ZM669.92 0L669.92 9.1Q669.92 9.45 665.65 9.45 661.37 9.45 661.37 9.1L661.37 9.1 661.37-16.65 659.67-16.65Q658.47-16.65 658.02-18.85L658.02-18.85Q657.87-19.55 657.87-20.65 657.87-21.75 658.57-23.25L658.57-23.25Q659.57-25.45 661.77-25.45L661.77-25.45Q663.22-25.45 664.45-24.78 665.67-24.1 666.15-23.53 666.62-22.95 666.62-22.85L666.62-22.85Q669.97-25.45 673.87-25.45 677.77-25.45 680.57-22.43 683.37-19.4 683.37-13.08 683.37-6.75 680.57-3.28 677.77 0.2 673.47 0.2L673.47 0.2Q671.52 0.2 669.92 0L669.92 0ZM671.97-16.7L671.97-16.7Q671.12-16.7 670.32-16.15L670.32-16.15 670.32-7.3Q671.17-7.2 671.7-7.2 672.22-7.2 672.52-7.2L672.52-7.2Q674.57-7.4 674.57-12.45L674.57-12.45Q674.57-16.7 671.97-16.7ZM689.09-2.95Q685.97-6.4 685.97-12.5 685.97-18.6 689.09-22.05 692.22-25.5 697.52-25.5 702.82-25.5 705.92-22.05 709.02-18.6 709.02-12.5 709.02-6.4 705.92-2.95 702.82 0.5 697.52 0.5 692.22 0.5 689.09-2.95ZM697.54-17.15Q694.72-17.15 694.72-12.55 694.72-7.95 697.54-7.95 700.37-7.95 700.37-12.55 700.37-17.15 697.54-17.15ZM736.72-8.4L738.52-24.75Q738.52-25.2 741.27-25.2L741.27-25.2Q747.47-25.2 747.37-24.8L747.37-24.8 742.47-0.5Q742.32 0.3 736.92 0.3 731.52 0.3 731.37-0.5L731.37-0.5 729.32-11.7 726.77-0.5Q726.62 0.25 721.04 0.25 715.47 0.25 715.32-0.65L715.32-0.65 710.87-25Q710.72-25.3 715.17-25.3L715.17-25.3Q719.57-25.25 719.57-25.1L719.57-25.1 721.87-8.2 726.02-24.9Q726.12-25.2 729.32-25.2 732.52-25.2 732.62-24.9L732.62-24.9 736.72-8.4ZM769.06-1.35L769.06-1.35Q765.91 0.5 760.96 0.5 756.01 0.5 752.61-2.88 749.21-6.25 749.21-12.23 749.21-18.2 752.49-21.85 755.76-25.5 760.76-25.5 765.76-25.5 768.49-22.95 771.21-20.4 771.21-16.75L771.21-16.75Q771.21-8.65 761.91-8.65L761.91-8.65 758.46-8.65Q758.46-7.15 759.29-6.58 760.11-6 761.71-6L761.71-6Q765.21-6 768.36-7.6L768.36-7.6Q768.41-7.65 768.81-6.9L768.81-6.9Q770.01-4.75 770.01-3.28 770.01-1.8 769.06-1.35ZM762.81-15.8L762.81-15.8Q762.81-17.9 760.76-17.9L760.76-17.9Q759.81-17.9 759.14-17.32 758.46-16.75 758.46-15.65L758.46-15.65 758.46-14.1 761.16-14.1Q762.81-14.1 762.81-15.8ZM785.41-14L785.41-0.05Q785.41 0.3 780.86 0.3L780.86 0.3Q776.31 0.2 776.31-0.1L776.31-0.1 776.31-16.7 774.96-16.7Q774.16-16.7 773.69-17.68 773.21-18.65 773.21-20.1L773.21-20.1Q773.21-25.5 776.41-25.5L776.41-25.5Q778.66-25.5 780.16-24.13 781.66-22.75 781.66-21L781.66-21Q782.71-23.05 784.49-24.28 786.26-25.5 788.11-25.5L788.11-25.5Q791.01-25.5 791.61-24L791.61-24Q791.76-23.6 791.76-22.83 791.76-22.05 791.29-20.05 790.81-18.05 790.31-17.15 789.81-16.25 789.71-16.25 789.61-16.25 788.79-16.63 787.96-17 787.31-17L787.31-17Q785.41-17 785.41-14L785.41-14ZM795.31-9L795.31-9Q799.36-6.55 801.71-6.55L801.71-6.55Q803.21-6.55 803.21-7.6L803.21-7.6Q803.21-8.35 800.61-9.55L800.61-9.55Q794.36-12.1 794.36-17.9L794.36-17.9Q794.36-21.6 797.06-23.55 799.76-25.5 803.53-25.5 807.31-25.5 809.93-24.7 812.56-23.9 812.56-22.6L812.56-22.6Q812.56-21.5 811.48-19.7 810.41-17.9 810.01-17.75L810.01-17.75Q807.86-18.95 805.36-18.95L805.36-18.95Q804.01-18.95 804.01-18L804.01-18Q804.01-17.4 804.53-16.98 805.06-16.55 806.46-15.93 807.86-15.3 808.78-14.8 809.71-14.3 810.86-13.4L810.86-13.4Q813.26-11.5 813.26-8.45L813.26-8.45Q813.26-4.45 810.61-1.98 807.96 0.5 802.61 0.5L802.61 0.5Q799.06 0.5 796.16-0.7 793.26-1.9 793.26-4L793.26-4Q793.26-5.4 793.93-6.95 794.61-8.5 795.31-9ZM824.96-9L824.96 0.15Q824.96 0.5 820.23 0.5 815.51 0.5 815.51 0.2L815.51 0.2 815.51-8.8Q815.51-9.25 820.23-9.25 824.96-9.25 824.96-9L824.96-9Z" opacity="1" transform="matrix(1,0,0,1,0,0)" fill="#ffffff" class="slogan-text-1" data-fill-palette-color="secondary" id="text-1"></path></svg></g></svg></g></svg></g></svg></g><g></g></svg></g><defs></defs></svg><rect width="395.52" height="101.92858728645122" fill="none" stroke="none" visibility="hidden"></rect></g></svg></g></svg>